<svg width="130" height="130" xmlns="http://www.w3.org/2000/svg">

 <g>
  <title>Layer 1</title>
  <g>
   <metadata stroke="#000000" fill="none" id="svg_4">image/svg+xml</metadata>

   <path stroke="#000000" fill="none" id="svg_2" d="m400,264c-6,-10 -16,-17 -28,-17c-17,0 -30,13 -30,30c0,33 18,38 58,76c40,-38 58,-43 58,-76c0,-17 -13,-30 -30,-30c-12,0 -22,7 -28,17z"/>
  </g>
  <g>
   <g>
    <title>Layer 1</title>
    <g stroke-width="5">
     <metadata id="svg_6" fill="none" stroke="#000000">image/svg+xml</metadata>
     <path d="m65,29c-6,-10 -16,-17 -28,-17c-17,0 -30,13 -30,30c0,33 18,38 58,76c40,-38 58,-43 58,-76c0,-17 -13,-30 -30,-30c-12,0 -22,7 -28,17z" id="svg_5" fill="none" stroke="#000000"/>
    </g>
   </g>
  </g>
 </g>
</svg>